<?xml version="1.0" standalone="no"?>
<!DOCTYPE svg PUBLIC "-//W3C//DTD SVG 20010904//EN"
 "http://www.w3.org/TR/2001/REC-SVG-20010904/DTD/svg10.dtd">
<svg version="1.0" xmlns="http://www.w3.org/2000/svg"
 width="271.000000pt" height="271.000000pt" viewBox="0 0 271.000000 271.000000"
 preserveAspectRatio="xMidYMid meet">
<metadata>
Created by potrace 1.11, written by Peter Selinger 2001-2013
</metadata>
<g transform="translate(0.000000,271.000000) scale(0.100000,-0.100000)"
fill="#000000" stroke="none">
<path d="M2210 2433 c-73 -7 -236 -46 -348 -83 -149 -49 -194 -68 -372 -159
-219 -112 -219 -112 -284 -126 -58 -13 -339 -14 -391 -2 -11 3 -40 8 -65 12
-145 23 -466 117 -637 188 -42 17 -63 22 -64 14 -1 -7 -3 -21 -4 -32 -2 -19
-10 -113 -21 -245 -2 -36 -7 -87 -9 -115 -2 -27 -7 -92 -11 -142 l-7 -93 331
-332 c182 -183 487 -492 679 -686 l348 -353 557 563 c306 310 611 618 678 686
l123 123 -7 77 c-3 42 -8 109 -11 147 -3 39 -7 99 -10 135 -2 36 -7 112 -10
170 -12 207 -9 199 -88 224 -103 32 -235 42 -377 29z m-107 -1213 c-164 -164
-399 -402 -523 -528 l-225 -228 -262 265 c-144 146 -377 382 -517 524 -141
141 -256 260 -256 262 0 3 468 5 1040 5 l1041 0 -298 -300z"/>
</g>
</svg>
